Coordinates
nRows=129
nColumns=2
inDegrees=yes
endheader
time	ankle_angle_r	
2.79133	 18.722408	
2.8629	 18.671306	
2.93448	 18.641865	
3.00605	 18.616221	
3.07762	 18.649655	
3.14919	 18.665621	
3.22077	 18.611703	
3.29234	 18.599712	
3.36391	 18.635972	
3.43548	 18.633397	
3.50706	 18.584220	
3.57863	 18.598528	
3.6502	 18.659987	
3.72177	 18.643668	
3.79335	 18.595296	
3.86492	 18.608233	
3.93649	 18.652186	
4.00806	 18.652290	
4.07964	 18.641914	
4.15121	 18.674902	
4.22278	 18.715392	
4.29435	 18.702454	
4.36593	 18.657333	
4.4375	 18.659155	
4.50907	 18.659583	
4.58065	 18.618058	
4.65222	 18.596380	
4.72379	 18.619994	
4.79536	 18.638236	
4.86694	 18.590066	
4.93851	 18.565687	
5.01008	 18.613124	
5.08165	 18.626881	
5.15323	 18.601468	
5.2248	 18.604695	
5.29637	 18.644184	
5.36794	 18.669965	
5.43952	 18.671101	
5.51109	 18.685630	
5.58266	 18.715826	
5.65423	 18.719249	
5.72581	 18.696688	
5.79738	 18.702677	
5.86895	 18.700416	
5.94052	 18.662869	
6.0121	 18.639795	
6.08367	 18.639265	
6.15524	 18.632012	
6.22681	 18.593513	
6.29839	 18.585611	
6.36996	 18.631122	
6.44153	 18.643954	
6.5131	 18.614712	
6.58468	 18.606791	
6.65625	 18.647901	
6.72782	 18.663926	
6.7994	 18.627784	
6.87097	 18.637514	
6.94254	 18.696496	
7.01411	 18.722271	
7.08569	 18.701258	
7.15726	 18.704344	
7.22883	 18.723886	
7.3004	 18.671781	
7.37198	 18.616074	
7.44355	 18.642496	
7.51512	 18.663139	
7.58669	 18.626428	
7.65827	 18.610265	
7.72984	 18.627397	
7.80141	 18.635682	
7.87298	 18.626855	
7.94456	 18.603759	
8.01613	 18.612443	
8.0877	 18.633943	
8.15927	 18.617310	
8.23085	 18.604956	
8.30242	 18.636809	
8.37399	 18.675420	
8.44556	 18.667972	
8.51714	 18.675059	
8.58871	 18.722543	
8.66028	 18.727566	
8.73185	 18.688484	
8.80343	 18.661811	
8.875	 18.661801	
8.94657	 18.646402	
9.01815	 18.615819	
9.08972	 18.610283	
9.16129	 18.628928	
9.23286	 18.640719	
9.30444	 18.611474	
9.37601	 18.599807	
9.44758	 18.627891	
9.51915	 18.625200	
9.59073	 18.603942	
9.6623	 18.605467	
9.73387	 18.642900	
9.80544	 18.680539	
9.87702	 18.684664	
9.94859	 18.690654	
10.0202	 18.711770	
10.0917	 18.712767	
10.1633	 18.673480	
10.2349	 18.651182	
10.3065	 18.667954	
10.378	 18.650128	
10.4496	 18.599387	
10.5212	 18.609214	
10.5927	 18.651072	
10.6643	 18.623034	
10.7359	 18.591489	
10.8075	 18.609383	
10.879	 18.638444	
10.9506	 18.641131	
11.0222	 18.596374	
11.0937	 18.600577	
11.1653	 18.641404	
11.2369	 18.623748	
11.3085	 18.585561	
11.38	 18.594154	
11.4516	 18.628884	
11.5232	 18.605148	
11.5948	 18.616080	
11.6663	 18.697893	
11.7379	 18.698810	
11.8095	 18.662152	
11.881	 18.683827	
11.9526	 18.738416	
